<?xml version="1.0" encoding="utf-8"?>
<!-- Generator: Adobe Illustrator 27.5.0, SVG Export Plug-In . SVG Version: 6.00 Build 0)  -->
<svg version="1.1" id="BASE" xmlns="http://www.w3.org/2000/svg" xmlns:xlink="http://www.w3.org/1999/xlink" x="0px" y="0px"
	 viewBox="0 0 2122 2122" style="enable-background:new 0 0 2122 2122;" xml:space="preserve">
<g>
	<g>
		<path style="fill:#E61D84;" d="M1949.339,692.408c-17.308-82.569-49.714-160.783-98.07-231.279
			c-0.002-0.004-0.006-0.009-0.01-0.014c-0.86-1.255-1.726-2.509-2.597-3.759c-0.085-0.121-0.169-0.242-0.253-0.363
			c-0.752-1.078-1.508-2.154-2.268-3.228c-0.345-0.487-0.689-0.975-1.036-1.462c-0.402-0.564-0.804-1.128-1.207-1.692
			c-0.656-0.916-1.316-1.83-1.978-2.744c-0.293-0.407-0.589-0.813-0.885-1.219c-0.751-1.032-1.505-2.063-2.266-3.092
			c-0.216-0.293-0.434-0.586-0.65-0.879c-0.826-1.116-1.657-2.233-2.493-3.345c-0.131-0.176-0.264-0.351-0.396-0.526
			c-0.919-1.223-1.844-2.444-2.775-3.662c-0.893-1.169-1.792-2.333-2.692-3.494c-0.256-0.33-0.513-0.661-0.77-0.991
			c-0.754-0.969-1.512-1.936-2.271-2.9c-0.434-0.551-0.87-1.102-1.307-1.651c-0.47-0.593-0.941-1.185-1.414-1.777
			c-0.547-0.685-1.095-1.368-1.644-2.05c-0.065-0.079-0.129-0.159-0.194-0.238C1557.229,93.65,1005.8,88.048,580.842,412.639
			C226.264,683.515,70.334,1099.786,171.985,1428.887c19.466,92.851,58.018,180.198,116.88,257.25
			c260.718,341.345,821.075,351.41,1251.614,22.505C1895.052,1437.771,2050.981,1021.507,1949.339,692.408z M920.867,1204.023
			c-0.007,0.017-0.016,0.035-0.023,0.052c-17.223-9.576-32.397-22.394-44.649-38.444c-5.504-7.2-10.225-14.797-14.184-22.714
			c-3.579-66.618,32.158-141.014,99.374-192.378c97.608-74.535,224.69-72.264,283.792,5.111
			c5.488,7.185,10.196,14.767,14.146,22.667c3.586,66.644-32.151,141.082-99.388,192.424
			c-29.747,22.732-62.228,38.324-94.686,46.827v-0.086C1013.295,1231.076,961.401,1226.565,920.867,1204.023z"/>
	</g>
	<g>
		<g>
			<path style="fill:#B30062;" d="M1762.661,358.12C1480.9,94.534,976.17,110.68,580.842,412.639
				C226.264,683.515,70.334,1099.786,171.985,1428.887c19.466,92.851,58.018,180.198,116.88,257.25
				c260.718,341.345,821.075,351.41,1251.614,22.505c354.573-270.872,510.502-687.136,408.86-1016.235
				c-7.748-36.959-18.618-73.008-32.506-107.915c0.019-0.01,0.036-0.019,0.053-0.028c-17.119-43.082-38.922-84.391-65.617-123.336
				c-0.002-0.004-0.006-0.009-0.01-0.014c-0.86-1.255-1.726-2.509-2.597-3.759c-0.085-0.121-0.169-0.242-0.253-0.363
				c-0.752-1.078-1.508-2.154-2.268-3.228c-0.345-0.487-0.689-0.975-1.036-1.462c-0.402-0.564-0.804-1.128-1.207-1.692
				c-0.656-0.916-1.316-1.83-1.978-2.744c-0.293-0.407-0.589-0.813-0.885-1.219c-0.751-1.032-1.505-2.063-2.266-3.092
				c-0.216-0.293-0.434-0.586-0.65-0.879c-0.826-1.116-1.657-2.233-2.493-3.345c-0.131-0.176-0.264-0.351-0.396-0.526
				c-0.919-1.223-1.844-2.444-2.775-3.662c-0.893-1.169-1.792-2.333-2.692-3.494c-0.256-0.33-0.513-0.661-0.77-0.991
				c-0.754-0.969-1.512-1.936-2.271-2.9c-0.434-0.551-0.87-1.102-1.307-1.651c-0.47-0.593-0.941-1.185-1.414-1.777
				c-0.547-0.685-1.095-1.368-1.644-2.05c-0.065-0.079-0.129-0.159-0.194-0.238c-18.48-22.887-38.37-44.185-59.487-63.941
				 M312.896,1595.913c-159.517-208.82-161.936-497.271-34.081-759.557c70.523-144.673,180.683-281.387,325.978-392.385
				c316.772-241.92,707.558-290.597,982.574-149.426c51.371,26.37,98.701,59.363,140.755,98.959
				c-12.772,13.107-25.531,26.226-38.281,39.354c-1.158,1.193-2.318,2.387-3.476,3.58c-10.027,10.327-20.049,20.66-30.066,30.998
				l-3.471,3.584c-10.019,10.343-20.034,20.69-30.045,31.041c-1.156,1.195-2.313,2.391-3.469,3.587
				c-10.013,10.355-20.022,20.712-30.029,31.073l-3.466,3.589c-10.01,10.365-20.018,20.731-30.024,31.099
				c-1.155,1.197-2.309,2.394-3.465,3.591c-7.958,8.247-15.918,16.496-23.877,24.744c-1.155,1.197-2.31,2.394-3.465,3.591
				c-9.674,10.025-19.347,20.051-29.021,30.076c-1.155,1.197-2.311,2.394-3.465,3.591c-7.452,7.721-14.904,15.441-22.358,23.16
				c-1.154,1.197-2.31,2.395-3.466,3.592c-8.079,8.367-16.16,16.732-24.244,25.096c-1.157,1.198-2.314,2.395-3.471,3.593
				c-14.43,14.93-28.865,29.852-43.311,44.766c-125.823-137.923-370.334-135.94-560.024,8.984
				c-198.21,151.393-261.544,401.479-141.535,558.55c35.65,46.675,83.471,79.894,138.281,99.564
				c-8.007,17.898-16.03,35.79-24.064,53.675c-0.685,1.523-1.368,3.046-2.052,4.569c-4.47,9.947-8.942,19.892-13.419,29.836
				c-0.686,1.525-1.372,3.05-2.06,4.575c-1.501,3.335-3.002,6.67-4.504,10.005c-2.625,5.828-5.253,11.654-7.886,17.479
				c-0.688,1.526-1.379,3.051-2.069,4.576c-5.386,11.916-10.783,23.828-16.185,35.74l-2.075,4.579
				c-4.436,9.782-8.874,19.563-13.312,29.346c-0.693,1.527-1.385,3.054-2.078,4.581c-5.586,12.32-11.167,24.642-16.737,36.969
				c-0.69,1.528-1.38,3.057-2.07,4.585c-5.562,12.318-11.111,24.642-16.638,36.975l-2.057,4.594
				c-5.516,12.324-11.011,24.657-16.476,37.002c-0.68,1.535-1.359,3.069-2.038,4.604c-5.451,12.335-10.87,24.684-16.252,37.048
				c-0.67,1.539-1.34,3.078-2.009,4.618c-2.894,6.664-5.778,13.332-8.648,20.006c-3.913,9.102-7.799,18.245-11.672,27.417
				C514.141,1779.922,397.07,1706.103,312.896,1595.913z M920.867,1204.023c-0.007,0.017-0.016,0.035-0.023,0.052
				c-17.223-9.576-32.397-22.394-44.649-38.444c-5.504-7.2-10.225-14.797-14.184-22.714
				c-3.579-66.618,32.158-141.014,99.374-192.378c97.608-74.535,224.69-72.264,283.792,5.111
				c5.488,7.185,10.196,14.767,14.146,22.667c3.586,66.644-32.151,141.082-99.388,192.424
				c-29.747,22.732-62.228,38.324-94.686,46.827v-0.086C1013.295,1231.076,961.401,1226.565,920.867,1204.023z M1501.022,1617.283
				c-127.333,97.26-266.623,163.289-405.548,198.313c-1.131-15.275-2.272-30.549-3.409-45.823l-0.376-5.05
				c-0.883-11.846-1.765-23.692-2.642-35.538c-0.124-1.682-0.249-3.365-0.373-5.048c-0.876-11.85-1.745-23.7-2.606-35.55
				c-0.122-1.683-0.245-3.367-0.367-5.05c-0.859-11.855-1.707-23.711-2.542-35.567c-0.118-1.684-0.236-3.368-0.355-5.052
				c-0.832-11.862-1.648-23.725-2.447-35.589c-0.113-1.685-0.226-3.371-0.34-5.056c-0.627-9.382-1.243-18.764-1.845-28.147
				c-0.108-1.687-0.217-3.373-0.324-5.059c-0.729-11.469-1.438-22.939-2.124-34.411c-0.1-1.687-0.199-3.374-0.299-5.061
				c-0.519-8.773-1.023-17.546-1.511-26.32c-0.094-1.689-0.186-3.378-0.28-5.066c-0.523-9.537-1.028-19.075-1.511-28.615
				c-0.085-1.691-0.169-3.382-0.253-5.072c-0.866-17.404-1.661-34.812-2.37-52.227c68.715-16.707,137.745-49.06,200.742-97.177
				c169.084-129.181,240.041-330.216,182.666-484.041c18.212-9.652,36.415-19.316,54.613-28.988c1.48-0.786,2.96-1.572,4.438-2.358
				c10.193-5.418,20.384-10.839,30.573-16.261c1.478-0.787,2.957-1.574,4.436-2.361c9.407-5.006,18.811-10.014,28.215-15.023
				c1.48-0.788,2.96-1.577,4.44-2.365c12.223-6.511,24.445-13.024,36.666-19.538c1.477-0.788,2.956-1.576,4.434-2.363
				c10.058-5.361,20.115-10.722,30.172-16.083c1.479-0.788,2.956-1.576,4.434-2.364c12.654-6.745,25.308-13.49,37.962-20.233
				c1.478-0.787,2.954-1.575,4.43-2.362c12.655-6.744,25.309-13.484,37.965-20.222c1.476-0.787,2.955-1.573,4.431-2.359
				c12.655-6.738,25.313-13.471,37.972-20.202c1.477-0.786,2.955-1.572,4.432-2.357c12.659-6.729,25.32-13.456,37.983-20.176
				c1.479-0.784,2.956-1.57,4.434-2.353c16.113-8.549,32.231-17.085,48.353-25.613
				C1999.633,926.13,1854.026,1347.603,1501.022,1617.283z"/>
		</g>
		<path style="fill:#CD0071;" d="M945.879,890.511c-88.526,67.646-122.448,175.245-83.868,252.406
			c-3.579-66.618,32.158-141.014,99.374-192.378c97.608-74.535,224.69-72.264,283.792,5.111
			c5.488,7.185,10.196,14.767,14.146,22.667c-0.789-14.654-3.48-28.931-8.154-42.503c-0.021,0.011-0.043,0.021-0.063,0.032
			c-4.042-11.736-9.517-22.962-16.58-33.431c0.004-0.005,0.009-0.008,0.012-0.013c-1.55-2.296-3.17-4.559-4.867-6.782
			C1170.569,818.247,1043.488,815.976,945.879,890.511z"/>
		<path style="fill:#CD0071;" d="M1524.973,1648.614c-430.541,328.905-990.896,318.84-1251.615-22.505
			c-46-60.216-79.595-126.719-101.373-197.222c19.466,92.851,58.018,180.198,116.88,257.25
			c260.718,341.345,821.075,351.41,1251.614,22.505c354.573-270.872,510.502-687.136,408.86-1016.235
			C2016.082,1010.826,1858.307,1393.968,1524.973,1648.614z"/>
		<path style="fill:#C94090;" d="M631.016,478.327c-252.521,192.925-392.261,468.501-392.278,721.574
			c-0.005,131.987,38.05,257.873,117.996,362.52c78.465,102.733,187.252,171.885,311.656,207.242
			c0.669-1.54,1.339-3.079,2.009-4.618c-123.753-35.035-231.818-103.687-309.7-205.653
			c-79.226-103.713-116.969-228.452-116.974-359.491c-0.018-251.23,138.892-525.548,390.319-717.609
			C820.668,339.74,1034.722,268.9,1231.792,268.904c175.391,0.01,337.24,56.077,454.572,167.533c1.158-1.193,2.318-2.387,3.476-3.58
			c-118.388-112.479-281.608-168.952-458.048-168.941C1033.53,263.919,818.472,335.146,631.016,478.327z"/>
		<path style="fill:#C94090;" d="M1471.767,1578.965c-119.348,91.175-249.912,153.017-380.078,185.757l0.376,5.05
			c131.121-32.853,262.592-95.07,382.731-186.844c252.521-192.925,392.257-468.501,392.276-721.575
			c0.003-79.388-13.764-156.569-42.133-228.248c-1.478,0.784-2.955,1.569-4.434,2.353c27.985,70.909,41.576,147.268,41.579,225.895
			C1862.101,1112.585,1723.195,1386.904,1471.767,1578.965z"/>
		<path style="fill:#C94090;" d="M1448.481,1548.483c-112.977,86.308-236.594,144.787-359.807,175.654
			c0.124,1.683,0.248,3.366,0.373,5.048c124.169-30.98,248.696-89.831,362.463-176.738
			c238.564-182.262,370.583-442.608,370.601-681.714c0.004-74.801-12.934-147.529-39.589-215.097
			c-1.477,0.786-2.955,1.572-4.432,2.357c26.27,66.797,39.031,138.702,39.034,212.74
			C1817.14,1107.996,1685.951,1367.084,1448.481,1548.483z"/>
		<path style="fill:#C94090;" d="M654.303,508.812c-238.564,182.262-370.588,442.608-370.604,681.714
			c-0.005,124.702,35.95,243.647,111.49,342.523c73.506,96.241,175.176,161.287,291.463,194.948c0.679-1.535,1.359-3.07,2.038-4.604
			c-115.646-33.338-216.605-97.888-289.537-193.372c-74.819-97.943-110.462-215.74-110.467-339.495
			c-0.018-237.263,131.176-496.351,368.646-677.749c176.259-134.638,378.428-201.543,564.548-201.539
			c166.47,0.01,320.014,53.483,430.947,159.781l3.471-3.584c-111.989-107.32-266.904-161.196-434.419-161.186
			C1034.567,306.252,831.395,373.546,654.303,508.812z"/>
		<path style="fill:#C94090;" d="M677.587,539.296c-224.607,171.6-348.913,416.715-348.93,641.854
			c-0.005,117.417,33.851,229.421,104.983,322.526c68.6,89.817,163.25,150.779,271.525,182.713l2.057-4.594
			c-107.639-31.61-201.586-92.079-269.617-181.148c-70.411-92.172-103.956-203.028-103.96-319.498
			c-0.018-223.296,123.458-467.154,346.971-637.889c165.901-126.726,356.186-189.695,531.357-189.691
			c157.564,0.01,302.81,50.91,407.34,152.077c1.156-1.195,2.313-2.391,3.469-3.587c-105.588-102.189-252.204-153.49-410.809-153.479
			C1035.61,348.585,844.322,411.942,677.587,539.296z"/>
		<path style="fill:#C94090;" d="M1425.196,1518c-106.594,81.431-223.25,136.54-339.495,165.536c0.122,1.683,0.245,3.367,0.367,5.05
			c117.204-29.108,234.771-84.59,342.158-166.622c224.607-171.6,348.908-416.716,348.926-641.854
			c0.004-70.201-12.1-138.467-37.034-201.915c-1.476,0.787-2.955,1.573-4.431,2.359c24.548,62.677,36.475,130.118,36.477,199.556
			C1772.181,1103.406,1648.709,1347.264,1425.196,1518z"/>
		<path style="fill:#C94090;" d="M1401.91,1487.517c-100.187,76.537-209.853,128.269-319.106,155.399
			c0.118,1.684,0.236,3.369,0.355,5.052c110.216-27.24,220.798-79.348,321.78-156.487
			c210.65-160.938,327.234-390.824,327.252-601.995c0.003-65.594-11.263-129.389-34.469-188.711
			c-1.476,0.787-2.953,1.574-4.43,2.362c22.822,58.549,33.91,121.52,33.912,186.349
			C1727.22,1098.816,1611.466,1327.444,1401.91,1487.517z"/>
		<path style="fill:#C94090;" d="M700.873,569.781c-210.65,160.937-327.237,390.822-327.255,601.994
			c-0.005,110.133,31.751,215.195,98.475,302.529c63.73,83.442,151.428,140.333,251.768,170.517c0.69-1.528,1.38-3.057,2.07-4.585
			c-99.707-29.86-186.707-86.261-249.873-168.961c-66.003-86.401-97.448-190.316-97.452-299.501
			c-0.018-209.328,115.741-437.957,325.297-598.03c155.541-118.811,333.941-177.846,498.163-177.842
			c148.672,0.01,285.631,48.346,383.752,144.406l3.466-3.589c-99.179-97.081-237.512-145.816-387.218-145.805
			C1036.651,390.918,857.247,450.341,700.873,569.781z"/>
		<path style="fill:#C94090;" d="M1378.625,1457.035c-93.746,71.617-196.383,119.965-298.608,145.236
			c0.113,1.685,0.227,3.371,0.34,5.056c103.193-25.38,206.751-74.105,301.297-146.328
			c196.691-150.275,305.557-364.93,305.576-562.134c0.002-60.982-10.423-120.302-31.901-175.494
			c-1.478,0.788-2.955,1.576-4.434,2.364c21.094,54.419,31.344,112.914,31.347,173.13
			C1682.259,1094.227,1574.223,1307.625,1378.625,1457.035z"/>
		<path style="fill:#C94090;" d="M724.159,600.264c-196.693,150.275-305.562,364.931-305.58,562.135
			c-0.004,102.848,29.652,200.969,91.968,282.532c58.884,77.096,139.674,129.922,232.123,158.336
			c0.693-1.527,1.385-3.054,2.078-4.581c-91.815-28.091-171.913-80.426-230.236-156.783
			c-61.595-80.63-90.939-177.604-90.944-279.504c-0.018-195.361,108.022-408.76,303.621-558.17
			c145.18-110.897,311.695-165.998,464.969-165.994c139.787,0.01,268.469,45.79,360.172,136.763c1.156-1.197,2.31-2.394,3.465-3.591
			c-92.763-91.994-222.821-138.172-363.638-138.161C1037.69,433.25,870.172,488.739,724.159,600.264z"/>
		<path style="fill:#C94090;" d="M743.167,625.149C557.867,766.72,455.298,968.943,455.28,1154.747
			c-0.005,96.901,27.937,189.355,86.654,266.208c54.933,71.924,130.097,121.427,216.124,148.385l2.075-4.579
			c-85.388-26.636-159.862-75.649-214.234-146.835c-57.996-75.92-85.627-167.227-85.632-263.18
			C460.25,970.786,561.99,769.82,746.196,629.114c136.725-104.439,293.539-156.326,437.876-156.322
			c132.537,0.01,254.461,43.711,340.916,130.542c1.155-1.197,2.31-2.394,3.465-3.591
			c-87.516-87.854-210.817-131.951-344.381-131.939C1038.543,467.806,880.725,520.082,743.167,625.149z"/>
		<path style="fill:#C94090;" d="M1359.617,1432.153c-88.454,67.575-185.317,113.152-281.768,136.912
			c0.107,1.686,0.216,3.372,0.324,5.059c97.425-23.867,195.214-69.822,284.474-138.007
			c185.298-141.571,287.865-343.794,287.883-529.597c0.002-57.217-9.74-112.883-29.806-164.702
			c-1.478,0.787-2.956,1.575-4.434,2.363c19.683,51.047,29.25,105.889,29.252,162.339
			C1645.558,1090.48,1543.821,1291.446,1359.617,1432.153z"/>
		<path style="fill:#C94090;" d="M1174.46,508.841c-134.913,0.003-281.21,48.467-408.72,145.861
			c-171.769,131.234-266.858,318.693-266.875,490.956c-0.005,89.839,25.903,175.565,80.346,246.824
			c50.236,65.774,118.719,111.324,197.107,136.54c0.69-1.525,1.38-3.051,2.069-4.576c-77.744-24.897-145.535-69.955-195.21-134.993
			c-53.721-70.325-79.319-154.904-79.323-243.796c-0.018-170.42,94.242-356.621,264.916-486.991
			c126.677-96.766,271.97-144.84,405.69-144.837c123.93,0.011,237.829,41.247,318.04,123.171c1.155-1.197,2.31-2.394,3.465-3.591
			C1414.691,550.461,1299.411,508.83,1174.46,508.841z"/>
		<path style="fill:#C94090;" d="M1337.043,1402.602c-82.127,62.741-172.075,105.015-261.619,126.99
			c0.1,1.687,0.2,3.374,0.299,5.061c90.527-22.08,181.409-64.732,264.349-128.086c171.768-131.234,266.852-318.694,266.871-490.956
			c0.002-52.747-8.928-104.077-27.32-151.892c-1.48,0.788-2.959,1.577-4.44,2.365c18.01,47.043,26.77,97.546,26.772,149.527
			C1601.973,1086.031,1507.718,1272.232,1337.043,1402.602z"/>
		<path style="fill:#C94090;" d="M1166.833,541.436c-126.484,0.003-263.629,45.437-383.164,136.737
			C622.647,801.198,533.501,976.93,533.484,1138.438c-0.005,84.23,24.286,164.611,75.335,231.427
			c46.493,60.873,109.655,103.271,181.957,127.095c0.687-1.525,1.374-3.05,2.06-4.575
			c-71.652-23.507-134.119-65.412-180.052-125.549c-50.328-65.882-74.308-145.116-74.313-228.398
			c-0.018-159.665,88.299-334.14,248.227-456.3c118.702-90.673,254.843-135.718,380.135-135.714
			c117.088,0.011,224.606,39.296,299.843,117.328c1.156-1.197,2.312-2.395,3.466-3.592
			C1393.84,581.102,1284.938,541.425,1166.833,541.436z"/>
		<path style="fill:#C94090;" d="M1319.114,1379.132c-77.059,58.869-161.465,98.507-245.48,119.074
			c0.094,1.689,0.186,3.378,0.28,5.066c85.005-20.671,170.352-60.688,248.229-120.176
			c161.021-123.024,250.162-298.758,250.181-460.266c0.003-49.2-8.29-97.086-25.355-141.723c-1.479,0.787-2.958,1.574-4.436,2.361
			c16.685,43.865,24.801,90.928,24.803,139.362C1567.354,1082.496,1479.041,1256.971,1319.114,1379.132z"/>
		<path style="fill:#C94090;" d="M1299.892,1353.969c-71.578,54.682-149.988,91.481-228.022,110.55
			c0.084,1.69,0.168,3.381,0.253,5.072c79.034-19.17,158.395-56.35,230.798-111.658
			c149.499-114.223,232.272-277.384,232.291-427.363c0.003-45.405-7.601-89.608-23.252-130.842
			c-1.479,0.786-2.958,1.572-4.438,2.358c15.273,40.463,22.7,83.845,22.702,128.485
			C1530.243,1078.707,1448.298,1240.61,1299.892,1353.969z"/>
		<path style="fill:#C94090;" d="M1158.651,576.381c-117.445,0.004-244.78,42.188-355.761,126.956
			C653.392,817.56,570.616,980.721,570.599,1130.699c-0.005,78.216,22.553,152.867,69.962,214.919
			c42.472,55.61,99.924,94.614,165.694,116.93c0.685-1.523,1.368-3.046,2.052-4.569c-65.113-22.001-121.867-60.515-163.782-115.39
			c-46.688-61.118-68.934-134.622-68.939-211.891c-0.018-148.136,81.927-310.039,230.333-423.397
			c110.147-84.14,236.479-125.937,352.731-125.933c109.748,0.011,210.42,37.205,280.309,111.071
			c1.157-1.197,2.314-2.395,3.471-3.593C1371.473,613.953,1269.413,576.37,1158.651,576.381z"/>
		<path style="fill:#FFFFFF;" d="M1762.678,358.102c-8.261,8.448-16.515,16.903-24.765,25.361c-3.264,3.346-6.53,6.692-9.791,10.04
			c-12.772,13.107-25.531,26.226-38.281,39.354c-1.158,1.193-2.318,2.387-3.476,3.58c-10.027,10.327-20.049,20.66-30.066,30.998
			l-3.471,3.584c-10.019,10.343-20.034,20.69-30.045,31.041c-1.156,1.195-2.313,2.391-3.469,3.587
			c-10.013,10.355-20.022,20.712-30.029,31.073l-3.466,3.589c-10.01,10.365-20.018,20.731-30.024,31.099
			c-1.155,1.197-2.309,2.394-3.465,3.591c-7.958,8.247-15.918,16.496-23.877,24.744c-1.155,1.197-2.31,2.394-3.465,3.591
			c-9.674,10.025-19.347,20.051-29.021,30.076c-1.155,1.197-2.311,2.394-3.465,3.591c-7.452,7.721-14.904,15.441-22.358,23.16
			c-1.154,1.197-2.31,2.395-3.466,3.592c-8.079,8.367-16.16,16.732-24.244,25.096c-1.157,1.198-2.314,2.395-3.471,3.593
			c-14.43,14.93-28.865,29.852-43.311,44.766c-53.516,55.25-107.163,110.371-161.112,165.198c-0.004,0.005-0.009,0.008-0.012,0.013
			c7.062,10.468,12.537,21.695,16.58,33.431c0.021-0.011,0.042-0.021,0.063-0.032c56.193-29.195,112.779-57.674,168.756-87.277
			c10.997-5.816,21.991-11.638,32.984-17.463c18.212-9.652,36.415-19.316,54.613-28.988c1.48-0.786,2.96-1.572,4.438-2.358
			c10.193-5.418,20.384-10.839,30.573-16.261c1.478-0.787,2.957-1.574,4.436-2.361c9.407-5.006,18.811-10.014,28.215-15.023
			c1.48-0.788,2.96-1.577,4.44-2.365c12.223-6.511,24.445-13.024,36.666-19.538c1.477-0.788,2.956-1.576,4.434-2.363
			c10.058-5.361,20.115-10.722,30.172-16.083c1.479-0.788,2.956-1.576,4.434-2.364c12.654-6.745,25.308-13.49,37.962-20.233
			c1.478-0.787,2.954-1.575,4.43-2.362c12.655-6.744,25.309-13.484,37.965-20.222c1.476-0.787,2.955-1.573,4.431-2.359
			c12.655-6.738,25.313-13.471,37.972-20.202c1.477-0.786,2.955-1.572,4.432-2.357c12.659-6.729,25.32-13.456,37.983-20.176
			c1.479-0.784,2.956-1.57,4.434-2.353c16.113-8.549,32.231-17.085,48.353-25.613c11.392-6.026,22.786-12.047,34.185-18.061
			c3.137-1.655,6.273-3.313,9.41-4.967c-17.119-43.082-38.922-84.391-65.617-123.336c-0.002-0.004-0.006-0.009-0.01-0.014
			c-0.86-1.255-1.726-2.509-2.597-3.759c-0.085-0.121-0.169-0.242-0.253-0.363c-0.752-1.078-1.508-2.154-2.268-3.228
			c-0.345-0.487-0.689-0.975-1.036-1.462c-0.402-0.564-0.804-1.128-1.207-1.692c-0.656-0.916-1.316-1.83-1.978-2.744
			c-0.293-0.407-0.589-0.813-0.885-1.219c-0.751-1.032-1.505-2.063-2.266-3.092c-0.216-0.293-0.434-0.586-0.65-0.879
			c-0.826-1.116-1.657-2.233-2.493-3.345c-0.131-0.176-0.264-0.351-0.396-0.526c-0.919-1.223-1.844-2.444-2.775-3.662
			c-0.893-1.169-1.792-2.333-2.692-3.494c-0.256-0.33-0.513-0.661-0.77-0.991c-0.754-0.969-1.512-1.936-2.271-2.9
			c-0.434-0.551-0.87-1.102-1.307-1.651c-0.47-0.593-0.941-1.185-1.414-1.777c-0.547-0.685-1.095-1.368-1.644-2.05
			c-0.065-0.079-0.129-0.159-0.194-0.238C1803.685,399.155,1783.794,377.858,1762.678,358.102z"/>
		<path style="fill:#FFFFFF;" d="M1091.689,1764.722c-0.883-11.846-1.765-23.692-2.642-35.538c-0.124-1.682-0.249-3.365-0.373-5.048
			c-0.876-11.85-1.745-23.7-2.606-35.55c-0.122-1.683-0.245-3.367-0.367-5.05c-0.859-11.855-1.707-23.711-2.542-35.567
			c-0.118-1.684-0.236-3.368-0.355-5.052c-0.832-11.862-1.648-23.725-2.447-35.589c-0.113-1.685-0.226-3.371-0.34-5.056
			c-0.627-9.382-1.243-18.764-1.845-28.147c-0.108-1.687-0.217-3.373-0.324-5.059c-0.729-11.469-1.438-22.939-2.124-34.411
			c-0.1-1.687-0.199-3.374-0.299-5.061c-0.519-8.773-1.023-17.546-1.511-26.32c-0.094-1.689-0.186-3.378-0.28-5.066
			c-0.523-9.537-1.028-19.075-1.511-28.615c-0.085-1.691-0.169-3.382-0.253-5.072c-0.866-17.404-1.661-34.812-2.37-52.227
			c-0.838-20.531-1.559-41.071-2.141-61.62c-0.659-23.221-1.16-46.443-1.512-69.666c-0.32-21.146-0.519-42.293-0.598-63.438v-0.086
			c-51.954,13.594-103.848,9.083-144.382-13.459c-0.007,0.017-0.016,0.035-0.023,0.052c-5.302,12.191-10.621,24.374-15.952,36.551
			c-23.934,54.663-48.152,109.204-72.52,163.677c-8.007,17.898-16.03,35.79-24.064,53.675c-0.685,1.523-1.368,3.046-2.052,4.569
			c-4.47,9.947-8.942,19.892-13.419,29.836c-0.686,1.525-1.372,3.05-2.06,4.575c-1.501,3.335-3.002,6.67-4.504,10.005
			c-2.625,5.828-5.253,11.654-7.886,17.479c-0.688,1.526-1.379,3.051-2.069,4.576c-5.386,11.916-10.783,23.828-16.185,35.74
			l-2.075,4.579c-4.436,9.782-8.874,19.563-13.312,29.346c-0.693,1.527-1.385,3.054-2.078,4.581
			c-5.586,12.32-11.167,24.642-16.737,36.969c-0.69,1.528-1.38,3.057-2.07,4.585c-5.562,12.318-11.111,24.642-16.638,36.975
			l-2.057,4.594c-5.516,12.324-11.011,24.657-16.476,37.002c-0.68,1.535-1.359,3.069-2.038,4.604
			c-5.451,12.335-10.87,24.684-16.252,37.048c-0.67,1.539-1.34,3.078-2.009,4.618c-2.894,6.664-5.778,13.332-8.648,20.006
			c-3.913,9.102-7.799,18.245-11.672,27.417c-6.031,14.283-12.029,28.633-18.05,43.008c143.862,39.175,305.966,38.315,468.518-2.796
			c-1.011-13.902-2.035-27.802-3.066-41.702c-1.131-15.275-2.272-30.549-3.409-45.823L1091.689,1764.722z"/>
	</g>
</g>
</svg>
